<svg width="121" height="122" viewBox="0 0 121 122" fill="none" xmlns="http://www.w3.org/2000/svg">
<g id="Vector" filter="url(#filter0_d_101_197)">
<path d="M77.3912 10.6553H14.4722V74.4185L43.7727 103.967H107V40.5151L77.3912 10.6553Z" fill="white"/>
<path d="M76.6201 12.6045L105.078 41.3031V102.029H44.5438L16.405 73.6409V12.6045H76.6201ZM77.3912 10.6553H14.4722V74.4185L43.7727 103.967H107V40.5151L77.3912 10.6553Z" fill="#242E3D"/>
<path d="M29.5028 63.2211V66.6425H27.57V57.3113H31.1169C31.96 57.2387 32.731 57.5498 33.4301 58.0889C34.5816 59.3331 34.5816 61.1993 33.4301 62.4435C32.8133 62.993 31.96 63.2937 31.1169 63.2211H29.5028ZM29.5028 61.7385H30.8907C31.2814 61.7385 31.6618 61.6659 31.888 61.3445C32.3506 60.7224 32.3506 59.7893 31.888 59.1672C31.5796 58.9287 31.2711 58.7732 30.8907 58.7732H29.5028V61.7385ZM42.3745 66.6425L41.7576 64.5482H38.6014L37.9846 66.6425H35.9078L39.1463 57.3113H41.3875L44.5438 66.6425H42.3745ZM38.9818 63.0656H41.295L40.1435 59.1776L38.9921 63.0656H38.9818ZM47.3093 57.3113H50.8562C51.7095 57.2387 52.4806 57.5498 53.1694 58.0889C53.7143 58.6281 54.0227 59.4057 54.0227 60.1833C54.0227 60.7328 53.8685 61.1993 53.5601 61.6659C53.2517 62.1324 52.789 62.4435 52.3264 62.6819L54.6396 66.7255H52.5628L50.5581 63.0759H49.2421V66.6529H47.3093V57.3113ZM49.2421 61.5829H50.63C51.3291 61.6555 51.9357 61.189 52.018 60.4943V60.1003C52.1002 59.3953 51.6273 58.7836 51.0207 58.7006H49.3244V61.5726H49.2524L49.2421 61.5829ZM59.338 66.6425V58.9391H56.4901V57.3113H64.1288V58.9391H61.2708V66.6425H59.338ZM68.9711 60.1833V66.6425H67.2028V57.3113H69.3618L73.1452 63.8432V57.3113H74.9238V66.6425H72.7648L68.9814 60.1833H68.9711ZM78.4604 66.6425V57.3113H84.557V58.8665H80.4652V61.0438H83.7859V62.599H80.4652V65.0873H84.557V66.6425H78.4604ZM88.1039 57.3113H91.6508C92.4938 57.2387 93.2649 57.5498 93.964 58.0889C94.5089 58.6281 94.807 59.4057 94.807 60.1833C94.807 60.7328 94.6528 61.1993 94.3444 61.6659C94.0359 62.1324 93.5733 62.4435 93.1107 62.6819L95.4239 66.7255H93.3471L91.3423 63.0759H90.0367V66.6529H88.1039V57.3113ZM90.0367 61.5829H91.4246C92.1134 61.6555 92.7303 61.189 92.8125 60.4943V60.1003C92.8845 59.3953 92.4218 58.7836 91.8153 58.7006H90.0367V61.5829Z" fill="#242E3D"/>
<path d="M35.0545 32.0341C35.0545 32.3452 35.0545 32.6562 35.2087 32.9672C35.2807 33.2057 35.4349 33.5167 35.5171 33.7448C35.5891 33.8278 35.5891 33.9004 35.5891 33.9833C35.5891 34.1388 35.5171 34.2218 35.3526 34.2943L34.6535 34.7609H34.4274C34.2732 34.7609 34.1909 34.6883 34.1189 34.6054C33.9647 34.4499 33.8105 34.2943 33.7283 34.1388C33.6563 33.9833 33.4918 33.7448 33.4198 33.5167C32.6488 34.4499 31.5693 34.9994 30.3356 34.9994C29.5645 35.0719 28.7934 34.7609 28.2588 34.2218C27.7139 33.6723 27.4878 32.9776 27.4878 32.2C27.4878 31.3498 27.7962 30.5722 28.413 30.0227C29.1121 29.4732 30.0271 29.1725 30.9627 29.1725C31.3534 29.1725 31.7338 29.1725 32.0422 29.2451L33.1937 29.4732V28.6956C33.2656 28.0735 33.1114 27.4515 32.731 26.9849C32.2684 26.5909 31.6515 26.4458 31.0347 26.5183C30.644 26.5183 30.2636 26.5909 29.8832 26.6739C29.5028 26.7568 29.1121 26.9123 28.7318 27.0678C28.5775 27.1404 28.4953 27.1404 28.3411 27.2234H28.1869C28.0327 27.2234 27.9504 27.1404 27.9504 26.9123V26.3628C27.9504 26.2073 27.9504 26.1347 28.0224 25.9688C28.0943 25.8962 28.1766 25.8133 28.3308 25.7407C28.7215 25.5023 29.1738 25.3467 29.6365 25.2742C30.1814 25.1186 30.716 25.0357 31.2609 25.0357C32.2581 24.9631 33.1937 25.2742 33.9544 25.8859C34.5713 26.5909 34.8797 27.5137 34.7975 28.4571L35.0237 32.0341H35.0545ZM30.8188 33.5893C31.2094 33.5893 31.5179 33.5167 31.8983 33.4338C32.2889 33.2783 32.5974 33.0398 32.9058 32.7288C33.06 32.5732 33.2142 32.3348 33.2965 32.0237C33.3787 31.7127 33.3684 31.4017 33.3684 31.0906V30.6241C33.06 30.5515 32.7516 30.4685 32.4432 30.4685C32.1347 30.396 31.8263 30.396 31.4356 30.396C30.901 30.3234 30.3561 30.4685 29.8935 30.79C29.2766 31.412 29.1944 32.4177 29.7393 33.1228C30.0477 33.5167 30.4281 33.6619 30.8188 33.5893ZM39.2285 34.7505C39.0743 34.7505 38.9201 34.7505 38.8379 34.678C38.7659 34.6054 38.6837 34.4395 38.6117 34.284L36.1443 26.114C36.0723 25.9585 36.0723 25.8029 36.0723 25.72C36.0723 25.5645 36.1443 25.4815 36.2265 25.4815H37.306C37.4602 25.4815 37.6144 25.4815 37.6967 25.5541C37.7687 25.637 37.8509 25.7926 37.9331 25.9481L39.7015 32.8739L41.3258 25.9481C41.3258 25.7926 41.3978 25.637 41.552 25.5541C41.7062 25.4815 41.8604 25.4815 41.9427 25.4815H42.7857C42.9399 25.4815 43.0942 25.4815 43.1764 25.5541C43.2586 25.637 43.3306 25.7926 43.4129 25.9481L45.027 33.0294L46.8056 25.9481C46.8056 25.7926 46.8775 25.637 47.0317 25.5541C47.1859 25.4815 47.2682 25.4815 47.4224 25.4815H48.4299C48.5841 25.4815 48.6664 25.5541 48.6664 25.637V25.8651C48.6664 25.9377 48.5841 26.0207 48.5841 26.1036L46.1167 34.1907C46.1167 34.3462 46.0448 34.5017 45.8803 34.5846C45.8083 34.7402 45.6541 34.7402 45.4896 34.7402H44.5643C44.4101 34.7402 44.2559 34.7402 44.1736 34.6676C44.1017 34.5121 44.0194 34.4291 43.9372 34.2736L42.3231 27.5033L40.709 34.2736C40.709 34.4291 40.637 34.5846 40.4725 34.6676C40.4006 34.7402 40.2463 34.7402 40.1641 34.7402H39.2388L39.2285 34.7505ZM52.6451 35.0616C52.1105 35.0616 51.5656 34.989 51.031 34.906C50.6403 34.8335 50.188 34.678 49.7973 34.5121C49.5608 34.4395 49.4066 34.201 49.4066 33.89V33.3405C49.4066 33.1124 49.4786 33.0294 49.6328 33.0294H49.787C49.859 33.0294 49.9412 33.102 50.0132 33.102C50.4039 33.2575 50.7843 33.4131 51.1646 33.496C51.5553 33.5686 52.0077 33.6515 52.3984 33.6515C52.9432 33.6515 53.4778 33.5789 53.9405 33.2575C54.2489 33.0294 54.4854 32.6355 54.4854 32.2518C54.4854 31.9408 54.4134 31.7023 54.1769 31.5468C53.8685 31.3084 53.4778 31.0803 53.0975 30.9973L51.5553 30.5308C50.9385 30.3752 50.3216 29.9916 49.859 29.4421C49.5505 28.9755 49.3141 28.4364 49.3141 27.8869C49.3141 27.4929 49.3963 27.1093 49.6225 26.7257C49.7767 26.4146 50.0852 26.1036 50.3936 25.8755C50.702 25.6474 51.0927 25.409 51.4731 25.3364C51.9357 25.1809 52.3161 25.1809 52.7787 25.1809C53.0152 25.1809 53.2414 25.1809 53.4778 25.2638C53.7143 25.2638 53.9405 25.3364 54.1769 25.4193C54.4134 25.5023 54.5676 25.4919 54.7938 25.5748C54.948 25.6578 55.1022 25.6578 55.2564 25.7304C55.4106 25.8029 55.4826 25.8859 55.5649 25.9585C55.6368 26.0414 55.6368 26.1969 55.6368 26.3524V26.819C55.6368 27.0471 55.5649 27.13 55.4004 27.13C55.2359 27.13 55.0919 27.0575 55.0097 26.9745C54.3928 26.6635 53.704 26.5805 53.0049 26.5805C52.5423 26.5805 52.0796 26.6531 51.617 26.8916C51.3086 27.0471 51.0824 27.4307 51.1544 27.8247C51.1544 28.1357 51.2263 28.3742 51.4628 28.6023C51.7712 28.9133 52.1619 29.0689 52.6143 29.1518L54.0844 29.6184C54.7013 29.7739 55.2359 30.1575 55.6985 30.6241C56.0069 31.018 56.1612 31.5572 56.1612 32.1067C56.1612 32.5007 56.0892 32.9569 55.8527 33.3508C55.6985 33.7448 55.3901 34.0559 55.0817 34.284C54.7732 34.5121 54.3106 34.7505 53.9302 34.906C53.6218 34.989 53.0872 35.0616 52.6245 35.0616H52.6451Z" fill="#242E3D"/>
<path d="M54.5676 40.1315C51.0927 42.6924 46.1579 44.0195 41.8399 44.0195C36.134 44.0195 30.5823 41.9148 26.3466 38.0268C26.0382 37.7158 26.3466 37.3322 26.7373 37.5603C31.4356 40.3596 36.8331 41.7593 42.2306 41.7593C46.3223 41.7593 50.3319 40.9091 54.105 39.3539C54.6396 39.1155 55.1845 39.7479 54.5676 40.1315ZM55.1022 42.4643C54.948 42.7754 55.2564 42.9309 55.5649 42.6924C57.4154 41.1372 57.8781 37.8713 57.4977 37.4047C57.107 36.9382 53.8685 36.5546 51.946 37.9439C51.6376 38.1823 51.7198 38.4934 52.018 38.4104C53.0975 38.2549 55.5649 37.9439 56.0275 38.566C56.4901 39.188 55.4826 41.4379 55.1022 42.454V42.4643Z" fill="#FF9900"/>
<path d="M60.3249 72.7182C59.8931 72.5523 59.5744 72.3553 59.3688 72.1272C59.1735 71.8887 59.0809 71.6088 59.0809 71.2667C59.0809 70.7794 59.2454 70.3957 59.5847 70.1158C59.924 69.8359 60.366 69.6907 60.9418 69.6907C61.4147 69.6907 61.8979 69.784 62.3914 69.9707V70.7275C61.8876 70.572 61.4353 70.4994 61.0137 70.4994C60.3352 70.4994 59.9856 70.7275 59.9856 71.1941C59.9856 71.3703 60.0473 71.5155 60.1707 71.6295C60.2941 71.7436 60.5203 71.8576 60.8287 71.9717L61.4867 72.2102C61.9082 72.376 62.2269 72.5627 62.4119 72.7908C62.6073 73.0189 62.6998 73.3092 62.6998 73.6617C62.6998 74.1801 62.5147 74.5948 62.1446 74.8851C61.7848 75.1858 61.281 75.3309 60.6539 75.3309C60.3763 75.3309 60.109 75.2998 59.8314 75.248C59.5538 75.1961 59.3174 75.1132 59.1221 75.0199V74.263C59.3688 74.346 59.6361 74.4082 59.9034 74.46C60.181 74.5119 60.438 74.5326 60.6539 74.5326C61.0137 74.5326 61.2913 74.4704 61.4867 74.3356C61.682 74.2008 61.7848 74.0038 61.7848 73.7654C61.7848 73.5891 61.7231 73.4439 61.5997 73.3299C61.4867 73.2159 61.281 73.1122 60.9829 72.9878L60.2941 72.7182H60.3249Z" fill="#242E3D"/>
<path d="M64.3036 73.4336C64.3242 73.8276 64.427 74.1179 64.6326 74.3045C64.8382 74.4808 65.1569 74.5741 65.5682 74.5741C65.9588 74.5741 66.3701 74.5119 66.8122 74.3667V75.0095C66.6374 75.1028 66.4215 75.1754 66.185 75.2272C65.9486 75.2895 65.6915 75.3102 65.4345 75.3102C64.7971 75.3102 64.3036 75.1339 63.9643 74.7918C63.6251 74.4393 63.4606 73.9209 63.4606 73.2366C63.4606 72.5523 63.6251 72.0546 63.9541 71.6814C64.2831 71.3081 64.7457 71.1215 65.3317 71.1215C65.8252 71.1215 66.2159 71.2563 66.4934 71.5362C66.7607 71.8058 66.9047 72.1998 66.9047 72.7182C66.9047 72.9878 66.8841 73.2262 66.8327 73.4336H64.3036ZM65.2803 71.7954C65.0027 71.7954 64.7765 71.8887 64.6018 72.0754C64.427 72.262 64.3242 72.5108 64.3036 72.8322H66.0822V72.77C66.0822 72.459 66.0102 72.2102 65.8766 72.0546C65.7327 71.8887 65.5373 71.7954 65.27 71.7954H65.2803Z" fill="#242E3D"/>
<path d="M69.3001 75.1339C69.1151 75.2065 68.9095 75.248 68.6936 75.248C68.3851 75.248 68.159 75.165 67.9945 74.9888C67.8402 74.8125 67.7683 74.5637 67.7683 74.2215V69.4315H68.6833V74.149C68.6833 74.2734 68.7038 74.3667 68.7552 74.4289C68.8066 74.4807 68.8786 74.5119 68.9917 74.5119C69.0842 74.5119 69.1768 74.5119 69.2899 74.4911V75.1339H69.3001Z" fill="#242E3D"/>
<path d="M70.7292 73.4336C70.7395 73.8276 70.8525 74.1179 71.0582 74.3045C71.2638 74.4808 71.5825 74.5741 71.9937 74.5741C72.3844 74.5741 72.7956 74.5119 73.2377 74.3667V75.0095C73.0629 75.1028 72.847 75.1754 72.6106 75.2272C72.3741 75.2895 72.1171 75.3102 71.8601 75.3102C71.2227 75.3102 70.7292 75.1339 70.3899 74.7918C70.0506 74.4393 69.8861 73.9209 69.8861 73.2366C69.8861 72.5523 70.0506 72.0546 70.3796 71.6814C70.7086 71.3081 71.161 71.1215 71.7573 71.1215C72.2507 71.1215 72.6414 71.2563 72.9087 71.5362C73.176 71.8058 73.32 72.1998 73.32 72.7182C73.32 72.9878 73.2994 73.2262 73.248 73.4336H70.7292ZM71.7059 71.7954C71.4283 71.7954 71.2021 71.8887 71.0273 72.0754C70.8525 72.262 70.7497 72.5108 70.7292 72.8322H72.5078V72.77C72.5078 72.459 72.4358 72.2102 72.3021 72.0546C72.1582 71.8887 71.9629 71.7954 71.6956 71.7954H71.7059Z" fill="#242E3D"/>
<path d="M76.9594 75.0406C76.651 75.2065 76.2911 75.2791 75.8799 75.2791C75.2733 75.2791 74.8107 75.1028 74.4817 74.7607C74.163 74.4082 73.9985 73.9105 73.9985 73.2573C73.9985 72.6041 74.163 72.0754 74.5023 71.7125C74.8415 71.3392 75.3144 71.1526 75.9107 71.1526C76.2706 71.1526 76.6201 71.2356 76.9388 71.3807V72.0339C76.5893 71.9302 76.3014 71.8784 76.0547 71.8784C75.664 71.8784 75.3864 71.9821 75.2014 72.1894C75.0163 72.3968 74.9238 72.7286 74.9238 73.1744V73.2677C74.9238 73.7031 75.0163 74.0349 75.2014 74.2423C75.3864 74.4496 75.6743 74.543 76.0547 74.543C76.322 74.543 76.6304 74.4911 76.9594 74.3874V75.0406Z" fill="#242E3D"/>
<path d="M80.0437 75.1028C79.7764 75.1961 79.4885 75.248 79.1903 75.248C78.7791 75.248 78.481 75.1547 78.2753 74.968C78.08 74.771 77.9875 74.4807 77.9875 74.0764V71.9406H77.3295V71.36L78.0286 71.2667L78.1623 70.1573H78.9128V71.2356H80.0334V71.9406H78.9128V74.0453C78.9128 74.2112 78.9539 74.346 79.0361 74.4185C79.1286 74.4911 79.2726 74.5326 79.4679 74.5326C79.6838 74.5326 79.8792 74.5222 80.0539 74.4704V75.1028H80.0437Z" fill="#242E3D"/>
<path d="M84.0326 75.1961V70.5824H82.3568V69.8048H86.644V70.5824H84.9682V75.1961H84.0326Z" fill="#242E3D"/>
<path d="M87.3431 75.1961V71.2356H88.2478V75.1961H87.3431ZM87.7852 70.5824C87.6207 70.5824 87.487 70.5409 87.3842 70.4476C87.2917 70.3543 87.2403 70.2195 87.2403 70.0536C87.2403 69.8877 87.2917 69.7529 87.3842 69.6596C87.4767 69.5663 87.6104 69.5145 87.7852 69.5145C87.9599 69.5145 88.1039 69.5663 88.1964 69.6596C88.2889 69.7529 88.3403 69.8774 88.3403 70.0536C88.3403 70.2299 88.2889 70.3439 88.1964 70.4476C88.1039 70.5409 87.9599 70.5824 87.7852 70.5824Z" fill="#242E3D"/>
<path d="M90.0264 73.4336C90.047 73.8276 90.1498 74.1179 90.3554 74.3045C90.561 74.4808 90.8797 74.5741 91.2909 74.5741C91.6816 74.5741 92.0928 74.5119 92.5349 74.3667V75.0095C92.3602 75.1028 92.1443 75.1754 91.9078 75.2272C91.6713 75.2895 91.4143 75.3102 91.1573 75.3102C90.5199 75.3102 90.0264 75.1339 89.6871 74.7918C89.3479 74.4393 89.1834 73.9209 89.1834 73.2366C89.1834 72.5523 89.3479 72.0546 89.6768 71.6814C90.0058 71.3081 90.4685 71.1215 91.0545 71.1215C91.5582 71.1215 91.9386 71.2563 92.2059 71.5362C92.4732 71.8058 92.6172 72.1998 92.6172 72.7182C92.6172 72.9878 92.5966 73.2262 92.5452 73.4336H90.0264ZM91.0031 71.7954C90.7255 71.7954 90.4993 71.8887 90.3245 72.0754C90.1498 72.262 90.047 72.5108 90.0264 72.8322H91.8153V72.77C91.8153 72.459 91.7433 72.2102 91.6096 72.0546C91.4657 71.8887 91.2704 71.7954 91.0031 71.7954Z" fill="#242E3D"/>
<path d="M93.5013 75.1961V71.2356H94.2621L94.3855 71.8265C94.5911 71.5984 94.7864 71.4429 94.9612 71.3496C95.136 71.2563 95.3313 71.2045 95.5472 71.2045C95.6398 71.2045 95.7426 71.2045 95.8557 71.2252V72.065C95.7117 72.0443 95.5575 72.0339 95.4136 72.0339C95.0332 72.0339 94.7042 72.1272 94.4163 72.3242V75.1961H93.5013Z" fill="#242E3D"/>
<path d="M69.0328 80.4942C68.601 80.3283 68.2823 80.1313 68.0767 79.9032C67.8814 79.6647 67.7888 79.3848 67.7888 79.0427C67.7888 78.5554 67.9533 78.1718 68.2926 77.8918C68.6319 77.6119 69.0842 77.4667 69.6497 77.4667C70.1226 77.4667 70.6058 77.56 71.0993 77.7467V78.5035C70.5955 78.348 70.1432 78.2754 69.7216 78.2754C69.0431 78.2754 68.6936 78.5035 68.6936 78.9701C68.6936 79.1463 68.7552 79.2915 68.8786 79.4055C69.002 79.5196 69.2282 79.6337 69.5366 79.7477L70.1946 79.9862C70.6161 80.1521 70.9245 80.3387 71.1198 80.5668C71.3152 80.7949 71.4077 81.0852 71.4077 81.4377C71.4077 81.9561 71.2227 82.3708 70.8525 82.6611C70.4927 82.9618 69.9889 83.1069 69.3618 83.1069C69.0842 83.1069 68.8169 83.0758 68.5393 83.024C68.272 82.9722 68.0253 82.8892 67.83 82.7959V82.039C68.0767 82.122 68.344 82.1842 68.6113 82.236C68.8889 82.2879 69.1459 82.3086 69.3618 82.3086C69.7216 82.3086 69.9992 82.2464 70.1946 82.1116C70.3899 81.9768 70.4927 81.7798 70.4927 81.5414C70.4927 81.3651 70.431 81.22 70.3077 81.1059C70.1946 80.9919 69.9889 80.8882 69.6908 80.7638L69.002 80.4942H69.0328Z" fill="#242E3D"/>
<path d="M73.0115 81.2096C73.0218 81.6036 73.1349 81.8939 73.3405 82.0805C73.5461 82.2568 73.8648 82.3501 74.2761 82.3501C74.6667 82.3501 75.078 82.2879 75.5201 82.1427V82.7855C75.3453 82.8788 75.1294 82.9514 74.8929 83.0033C74.6565 83.0551 74.3994 83.0862 74.1424 83.0862C73.505 83.0862 73.0115 82.9099 72.6723 82.5678C72.333 82.2153 72.1685 81.6969 72.1685 81.0126C72.1685 80.3283 72.333 79.8306 72.662 79.4574C72.991 79.0841 73.4433 78.8975 74.0396 78.8975C74.5331 78.8975 74.9238 79.0323 75.1911 79.3122C75.4584 79.5818 75.6023 79.9758 75.6023 80.4942C75.6023 80.7638 75.5817 81.0022 75.5303 81.2096H73.0115ZM73.9882 79.5714C73.7106 79.5714 73.4844 79.6647 73.3097 79.8514C73.1349 80.038 73.0321 80.2868 73.0115 80.6082H74.7901V80.546C74.7901 80.235 74.7182 79.9862 74.5845 79.8306C74.4406 79.6648 74.2452 79.5714 73.9779 79.5714H73.9882Z" fill="#242E3D"/>
<path d="M76.4865 82.9721V79.0116H77.2473L77.3706 79.6025C77.5762 79.3745 77.7716 79.2189 77.9464 79.1256C78.1211 79.0323 78.3165 78.9805 78.5426 78.9805C78.6352 78.9805 78.738 78.9805 78.8511 79.0012V79.841C78.7071 79.8203 78.5529 79.8099 78.409 79.8099C78.0286 79.8099 77.6996 79.9032 77.4117 80.1002V82.9721H76.4865Z" fill="#242E3D"/>
<path d="M80.4857 82.9722L78.9539 79.0116H79.9306L80.9278 82.1427L81.9353 79.0116H82.8606L81.3596 82.9722H80.4754H80.4857Z" fill="#242E3D"/>
<path d="M83.5083 82.9721V79.0116H84.413V82.9721H83.5083ZM83.9504 78.3584C83.7859 78.3584 83.6522 78.3169 83.5494 78.2236C83.4569 78.1303 83.4055 77.9955 83.4055 77.8296C83.4055 77.6637 83.4569 77.5289 83.5494 77.4356C83.642 77.3423 83.7756 77.2905 83.9504 77.2905C84.1252 77.2905 84.2691 77.3423 84.3616 77.4356C84.4542 77.5289 84.5056 77.6534 84.5056 77.8296C84.5056 78.0059 84.4542 78.1199 84.3616 78.2236C84.2691 78.3169 84.1252 78.3584 83.9504 78.3584Z" fill="#242E3D"/>
<path d="M88.3198 82.8166C88.0113 82.9825 87.6515 83.0551 87.2403 83.0551C86.6337 83.0551 86.1711 82.8788 85.8421 82.5367C85.5234 82.1842 85.3589 81.6865 85.3589 81.0333C85.3589 80.3801 85.5234 79.8514 85.8626 79.4885C86.2019 79.1152 86.6748 78.9286 87.2711 78.9286C87.6309 78.9286 87.9805 79.0116 88.2992 79.1567V79.8099C87.9496 79.7062 87.6618 79.6544 87.415 79.6544C87.0244 79.6544 86.7468 79.7581 86.5617 79.9654C86.3767 80.1728 86.2841 80.5046 86.2841 80.9504V81.0437C86.2841 81.4792 86.3767 81.8109 86.5617 82.0183C86.7468 82.2257 87.0346 82.319 87.415 82.319C87.6823 82.319 87.9908 82.2671 88.3198 82.1634V82.8166Z" fill="#242E3D"/>
<path d="M89.7694 81.2096C89.7899 81.6036 89.8927 81.8939 90.0984 82.0805C90.304 82.2568 90.6227 82.3501 91.0339 82.3501C91.4246 82.3501 91.8358 82.2879 92.2779 82.1427V82.7855C92.1031 82.8788 91.8872 82.9514 91.6508 83.0033C91.4143 83.0551 91.1573 83.0862 90.9003 83.0862C90.2526 83.0862 89.7694 82.9099 89.4301 82.5678C89.0908 82.2153 88.9263 81.6969 88.9263 81.0126C88.9263 80.3283 89.0908 79.8306 89.4198 79.4574C89.7488 79.0841 90.2114 78.8975 90.7975 78.8975C91.3012 78.8975 91.6816 79.0323 91.9489 79.3122C92.2162 79.5818 92.3602 79.9758 92.3602 80.4942C92.3602 80.7638 92.3396 81.0022 92.2882 81.2096H89.7694ZM90.7461 79.5714C90.4788 79.5714 90.2423 79.6647 90.0675 79.8514C89.8927 80.038 89.7899 80.2868 89.7694 80.6082H91.5583V80.546C91.5583 80.235 91.4863 79.9862 91.3526 79.8306C91.2087 79.6648 91.0134 79.5714 90.7461 79.5714Z" fill="#242E3D"/>
<path d="M95.0126 81.9043C95.0126 81.7902 94.9715 81.6969 94.8995 81.6243C94.8276 81.5517 94.6939 81.4792 94.4986 81.4066L93.8612 81.1681C93.2854 80.94 92.9976 80.5771 92.9976 80.0795C92.9976 79.7166 93.1312 79.4367 93.3985 79.2293C93.6761 79.0219 94.0257 78.9183 94.4677 78.9183C94.9098 78.9183 95.2902 79.0012 95.6192 79.1671V79.8099C95.2285 79.6855 94.8584 79.6129 94.5191 79.6129C94.2827 79.6129 94.1182 79.644 94.0051 79.727C93.892 79.7995 93.8406 79.9032 93.8406 80.0587C93.8406 80.1728 93.8817 80.2661 93.964 80.3387C94.0359 80.4009 94.1799 80.4838 94.3855 80.5668L94.9921 80.7949C95.3005 80.9193 95.5164 81.0644 95.65 81.2303C95.7837 81.3962 95.8557 81.6036 95.8557 81.8524C95.8557 82.2464 95.7117 82.5574 95.4341 82.7752C95.1566 83.0033 94.7762 83.1173 94.2827 83.1173C94.0462 83.1173 93.8098 83.0862 93.5733 83.0344C93.3471 82.9825 93.1518 82.9099 92.9667 82.8166V82.1738C93.4602 82.3397 93.892 82.4123 94.2827 82.4123C94.5397 82.4123 94.7248 82.3708 94.8378 82.2879C94.9612 82.2153 95.0229 82.0909 95.0229 81.925L95.0126 81.9043Z" fill="#242E3D"/>
</g>
<defs>
<filter id="filter0_d_101_197" x="0.472168" y="0.655273" width="120.528" height="121.312" filterUnits="userSpaceOnUse" color-interpolation-filters="sRGB">
<feFlood flood-opacity="0" result="BackgroundImageFix"/>
<feColorMatrix in="SourceAlpha" type="matrix" values="0 0 0 0 0 0 0 0 0 0 0 0 0 0 0 0 0 0 127 0" result="hardAlpha"/>
<feOffset dy="4"/>
<feGaussianBlur stdDeviation="7"/>
<feComposite in2="hardAlpha" operator="out"/>
<feColorMatrix type="matrix" values="0 0 0 0 0 0 0 0 0 0.0196078 0 0 0 0 0.247059 0 0 0 0.69 0"/>
<feBlend mode="normal" in2="BackgroundImageFix" result="effect1_dropShadow_101_197"/>
<feBlend mode="normal" in="SourceGraphic" in2="effect1_dropShadow_101_197" result="shape"/>
</filter>
</defs>
</svg>
